<svg xmlns="http://www.w3.org/2000/svg" viewBox="0 0 24 24" fill="currentColor" class="h-6 w-6">
  <path d="M12 0C5.37 0 0 5.37 0 12c0 5.3 3.438 9.8 8.207 11.387.6.113.793-.263.793-.587 0-.287-.012-1.237-.018-2.237-3.338.725-4.042-1.612-4.042-1.612-.546-1.387-1.333-1.755-1.333-1.755-1.09-.744.082-.73.082-.73 1.205.087 1.84 1.237 1.84 1.237 1.07 1.832 2.805 1.302 3.49.995.107-.775.42-1.302.763-1.602-2.665-.3-5.467-1.332-5.467-5.93 0-1.31.468-2.382 1.237-3.222-.123-.303-.537-1.523.117-3.175 0 0 1.01-.323 3.3 1.23.96-.267 1.987-.4 3.007-.405 1.02.005 2.047.138 3.007.405 2.29-1.553 3.3-1.23 3.3-1.23.654 1.652.24 2.872.117 3.175.768.84 1.237 1.912 1.237 3.222 0 4.61-2.807 5.625-5.48 5.92.432.372.816 1.102.816 2.222 0 1.607-.014 2.902-.014 3.293 0 .323.192.705.798.587C20.565 21.8 24 17.3 24 12c0-6.63-5.37-12-12-12z" />
</svg>