<svg xmlns="http://www.w3.org/2000/svg" viewBox="0 0 48 48" fill="none" class="h-6 w-6">
  <path fill="#EA4335" d="M24 9.5c3.14 0 5.97 1.15 8.2 3.04l6.1-6.1C34.8 3.02 29.7 1 24 1 14.7 1 6.9 6.6 3.4 14.1l7.5 5.8C12.7 13.2 17.9 9.5 24 9.5z" />
  <path fill="#34A853" d="M24 47c6.1 0 11.3-2.1 15.1-5.7l-7.1-5.8c-2.1 1.4-4.8 2.3-8 2.3-6.1 0-11.3-4.1-13.1-9.6l-7.4 5.7C6.9 41.4 14.7 47 24 47z" />
  <path fill="#4A90E2" d="M47 24c0-1.6-.2-3.2-.5-4.7H24v9h13.1c-.6 3.1-2.3 5.7-4.8 7.5l7.1 5.8C43.6 37.1 47 31 47 24z" />
  <path fill="#FBBC05" d="M10.9 28.2c-.5-1.4-.9-2.9-.9-4.5s.3-3.1.9-4.5l-7.5-5.8C2.5 16.1 1 19.9 1 24s1.5 7.9 4.4 10.6l7.5-6.4z" />
</svg>